<svg xmlns="http://www.w3.org/2000/svg" xmlns:xlink="http://www.w3.org/1999/xlink" style="height: 0; position: absolute">
  <symbol id="github" viewBox="0 0 16 16"><path d="M8 0C3.58 0 0 3.582 0 8c0 3.535 2.292 6.533 5.47 7.59.4.075.547-.172.547-.385 0-.19-.007-.693-.01-1.36-2.226.483-2.695-1.073-2.695-1.073-.364-.924-.89-1.17-.89-1.17-.725-.496.056-.486.056-.486.803.056 1.225.824 1.225.824.714 1.223 1.873.87 2.33.665.072-.517.278-.87.507-1.07-1.777-.2-3.644-.888-3.644-3.953 0-.873.31-1.587.823-2.147-.083-.202-.358-1.015.077-2.117 0 0 .672-.215 2.2.82.638-.178 1.323-.266 2.003-.27.68.004 1.364.092 2.003.27 1.527-1.035 2.198-.82 2.198-.82.437 1.102.163 1.915.08 2.117.513.56.823 1.274.823 2.147 0 3.073-1.87 3.75-3.653 3.947.287.246.543.735.543 1.48 0 1.07-.01 1.933-.01 2.195 0 .215.144.463.55.385C13.71 14.53 16 11.534 16 8c0-4.418-3.582-8-8-8"/></symbol>
  <symbol id="hackernews" viewBox="0 0 16 16"><path d="M0 0v16h16V0H0zm8.92 8.96v3H7.25v-3l-2.75-5h1.96l1.66 3.48L9.7 3.96h1.88l-2.66 5z"/></symbol>
  <symbol id="linkedin" viewBox="0 0 16 16"><path d="M13.632 13.635h-2.37V9.922c0-.886-.018-2.025-1.234-2.025-1.235 0-1.424.964-1.424 1.96v3.778h-2.37V6H8.51V7.04h.03c.318-.6 1.092-1.233 2.247-1.233 2.4 0 2.845 1.58 2.845 3.637v4.188zM3.558 4.955c-.762 0-1.376-.617-1.376-1.377 0-.758.614-1.375 1.376-1.375.76 0 1.376.617 1.376 1.375 0 .76-.617 1.377-1.376 1.377zm1.188 8.68H2.37V6h2.376v7.635zM14.816 0H1.18C.528 0 0 .516 0 1.153v13.694C0 15.484.528 16 1.18 16h13.635c.652 0 1.185-.516 1.185-1.153V1.153C16 .516 15.467 0 14.815 0z" fill-rule="nonzero"/></symbol>
  <symbol id="medium" viewBox="0 0 16 16"><path d="M11.824 12.628l-.276.45.798.398 2.744 1.372c.15.076.294.11.418.11.278 0 .467-.177.467-.492V5.883l-4.15 6.745zm4.096-8.67c-.004-.003 0-.01-.003-.012l-4.825-2.412c-.06-.03-.123-.038-.187-.044-.016 0-.03-.01-.047-.01-.184 0-.368.092-.467.254l-.24.39-.5.814-1.89 3.08 1.89 3.076.5.813.5.812.59.95 4.71-7.64c.02-.03.01-.06-.02-.08zm-6.27 7.045L7.17 6.97l-.295-.477-.294-.477-.25-.416v4.867l3.32 1.663.5.25.5.25-.5-.813-.5-.813zM.737 1.68L.59 1.608c-.085-.042-.166-.062-.24-.062-.206 0-.35.16-.35.427v10.162c0 .272.2.594.442.716l4.145 2.08c.107.06.208.08.3.08.257 0 .438-.2.438-.53V4.01c0-.02-.012-.04-.03-.047L.738 1.68z"/></symbol>
  <symbol id="rss" viewBox="0 0 16 16"><path d="M12.8 16C12.8 8.978 7.022 3.2 0 3.2V0c8.777 0 16 7.223 16 16h-3.2zM2.194 11.61c1.21 0 2.195.985 2.195 2.196 0 1.21-.985 2.194-2.196 2.194C.984 16 0 15.017 0 13.806c0-1.21.983-2.195 2.194-2.195zM10.606 16h-3.11c0-4.113-3.383-7.497-7.496-7.497v-3.11c5.818 0 10.606 4.79 10.606 10.607z"/></symbol>
  <symbol id="reddit" viewBox="0 0 16 16"><path d="M1.473 9.368c-.04.185-.06.374-.06.566 0 2.3 2.94 4.173 6.554 4.173 3.613 0 6.553-1.872 6.553-4.173 0-.183-.02-.364-.055-.54l-.01-.022c-.013-.036-.02-.073-.02-.11-.2-.784-.745-1.497-1.533-2.072-.03-.01-.058-.026-.084-.047-.017-.013-.03-.028-.044-.043-1.198-.824-2.91-1.34-4.807-1.34-1.88 0-3.576.506-4.772 1.315-.01.012-.02.023-.033.033-.026.022-.056.04-.087.05-.805.576-1.364 1.293-1.572 2.086 0 .038-.01.077-.025.114l-.005.01zM8 13.003c-1.198 0-2.042-.26-2.58-.8-.116-.116-.116-.305 0-.422.117-.11.307-.11.424 0 .42.42 1.125.63 2.155.63 1.03 0 1.73-.2 2.15-.62.11-.11.3-.11.42 0 .11.12.11.31 0 .43-.54.54-1.38.8-2.58.8zM5.592 7.945c-.61 0-1.12.51-1.12 1.12 0 .608.51 1.102 1.12 1.102.61 0 1.103-.494 1.103-1.102 0-.61-.494-1.12-1.103-1.12zm4.83 0c-.61 0-1.12.51-1.12 1.12 0 .608.51 1.102 1.12 1.102.61 0 1.103-.494 1.103-1.102 0-.61-.494-1.12-1.103-1.12zM13.46 6.88c.693.556 1.202 1.216 1.462 1.94.3-.225.48-.578.48-.968 0-.67-.545-1.214-1.214-1.214-.267 0-.52.087-.728.243zM1.812 6.64c-.67 0-1.214.545-1.214 1.214 0 .363.16.7.43.927.268-.72.782-1.37 1.478-1.92-.202-.14-.443-.22-.694-.22zm6.155 8.067c-3.944 0-7.152-2.14-7.152-4.77 0-.183.016-.363.046-.54-.53-.33-.86-.91-.86-1.545 0-1 .82-1.812 1.82-1.812.45 0 .87.164 1.2.455 1.24-.796 2.91-1.297 4.75-1.33l1.21-3.69.27.063s.01 0 .01.002l2.82.663c.23-.533.76-.908 1.38-.908.82 0 1.49.67 1.49 1.492 0 .823-.67 1.492-1.49 1.492s-1.49-.67-1.49-1.49L9.4 2.18l-.98 2.99c1.77.07 3.37.57 4.57 1.35.33-.31.764-.48 1.225-.48 1 0 1.814.81 1.814 1.81 0 .66-.36 1.26-.92 1.58.02.17.04.33.04.5-.01 2.63-3.21 4.77-7.16 4.77zM13.43 1.893c-.494 0-.895.4-.895.894 0 .493.4.894.894.894.49 0 .89-.4.89-.89s-.4-.89-.9-.89z"/></symbol>
  <symbol id="skype" viewBox="0 0 16 16"><path d="M8.035 12.6c-2.685 0-3.885-1.322-3.885-2.313 0-.51.374-.865.89-.865 1.15 0 .85 1.653 2.995 1.653 1.096 0 1.703-.597 1.703-1.208 0-.368-.18-.775-.904-.954l-2.387-.597C4.524 7.833 4.175 6.79 4.175 5.812c0-2.034 1.91-2.798 3.704-2.798 1.65 0 3.6.916 3.6 2.136 0 .523-.452.827-.97.827-.98 0-.798-1.36-2.773-1.36-.98 0-1.523.444-1.523 1.08 0 .636.774.84 1.446.993l1.767.392c1.936.433 2.427 1.566 2.427 2.633 0 1.652-1.266 2.886-3.82 2.886m7.4-3.264l-.014.084-.028-.16c.015.024.028.05.042.076.082-.45.125-.912.125-1.373 0-1.023-.2-2.014-.595-2.948-.38-.902-.925-1.712-1.62-2.407-.692-.696-1.5-1.242-2.4-1.623C10.015.59 9.025.39 8.005.39c-.48 0-.963.045-1.43.135H6.57l.08.04-.16-.023.08-.016C5.927.183 5.205 0 4.472 0 3.278 0 2.155.466 1.31 1.313.465 2.16 0 3.286 0 4.483c0 .763.195 1.512.563 2.175l.013-.083.028.16c-.015-.026-.027-.052-.04-.077-.076.43-.115.867-.115 1.305 0 1.022.2 2.014.593 2.948.38.903.925 1.713 1.62 2.408.693.695 1.5 1.242 2.4 1.623.932.397 1.92.597 2.94.597.445 0 .89-.04 1.325-.118l-.077-.043.162.028-.084.014c.67.378 1.426.58 2.2.58 1.194 0 2.317-.466 3.162-1.313.845-.846 1.31-1.972 1.31-3.17 0-.765-.197-1.517-.566-2.18" fill-rule="nonzero"/></symbol>
  <symbol id="twitter" viewBox="0 0 16 16"><path d="M16 3.038c-.59.26-1.22.437-1.885.517.677-.407 1.198-1.05 1.443-1.816-.634.375-1.337.648-2.085.795-.598-.638-1.45-1.036-2.396-1.036-1.812 0-3.282 1.468-3.282 3.28 0 .258.03.51.085.75C5.152 5.39 2.733 4.084 1.114 2.1.83 2.583.67 3.147.67 3.75c0 1.14.58 2.143 1.46 2.732-.538-.017-1.045-.165-1.487-.41v.04c0 1.59 1.13 2.918 2.633 3.22-.276.074-.566.114-.865.114-.21 0-.416-.02-.617-.058.418 1.304 1.63 2.253 3.067 2.28-1.124.88-2.54 1.404-4.077 1.404-.265 0-.526-.015-.783-.045 1.453.93 3.178 1.474 5.032 1.474 6.038 0 9.34-5 9.34-9.338 0-.143-.004-.284-.01-.425.64-.463 1.198-1.04 1.638-1.7z" fill-rule="nonzero"/></symbol>
  <symbol id="youtube" viewBox="0 0 16 16"><path d="M0 7.345c0-1.294.16-2.59.16-2.59s.156-1.1.636-1.587c.608-.637 1.408-.617 1.764-.684C3.84 2.36 8 2.324 8 2.324s3.362.004 5.6.166c.314.038.996.04 1.604.678.48.486.636 1.588.636 1.588S16 6.05 16 7.346v1.258c0 1.296-.16 2.59-.16 2.59s-.156 1.102-.636 1.588c-.608.638-1.29.64-1.604.678-2.238.162-5.6.166-5.6.166s-4.16-.037-5.44-.16c-.356-.067-1.156-.047-1.764-.684-.48-.487-.636-1.587-.636-1.587S0 9.9 0 8.605v-1.26zm6.348 2.73V5.58l4.323 2.255-4.32 2.24h-.002z"/></symbol>
  <symbol id="link" viewBox="0 0 16 16"><path d="M5.86 12.7l-.81.8c-.7.7-1.84.7-2.54 0a1.75 1.75 0 0 1 0-2.5l2.98-2.96c.61-.61 1.77-1.52 2.62-.68a1 1 0 1 0 1.4-1.4c-1.44-1.43-3.57-1.17-5.42.67L1.1 9.6a3.72 3.72 0 0 0 0 5.32 3.78 3.78 0 0 0 5.34 0l.8-.8a1 1 0 1 0-1.39-1.42zm9.03-11.5c-1.55-1.53-3.7-1.6-5.14-.19l-1 1a1 1 0 1 0 1.39 1.41l1-1c.75-.74 1.72-.43 2.35.2a1.75 1.75 0 0 1 0 2.5l-3.17 3.15c-1.46 1.45-2.14.77-2.43.48a1 1 0 0 0-1.4 1.4c.67.67 1.43 1 2.23 1 .98 0 2.01-.5 3-1.47l3.17-3.15a3.72 3.72 0 0 0 0-5.32z"/></symbol>
  <symbol id="email" viewBox="0 0 16 11"><path fill-rule="evenodd" d="M1.33 0h13.34L8 5 1.33 0zM16 0v11H0V0l8 6 8-6z"/></symbol>
  <symbol id="nav" viewBox="0 0 16 11"><path d="M0 12h16v-2H0v2zm0-5h16V5H0v2zm0-7v2h16V0H0z"/></symbol>
</svg>
